<?xml version="1.0" encoding="utf-8"?>
<!-- Generator: Adobe Illustrator 21.1.0, SVG Export Plug-In . SVG Version: 6.00 Build 0)  -->
<svg version="1.1" id="Layer_1" xmlns="http://www.w3.org/2000/svg" xmlns:xlink="http://www.w3.org/1999/xlink" x="0px" y="0px"
	 viewBox="0 0 160 160" style="enable-background:new 0 0 160 160;" xml:space="preserve">
<style type="text/css">
	.st0{fill:url(#SVGID_1_);}
	.st1{fill:url(#SVGID_2_);}
	.st2{fill:url(#SVGID_3_);}
	.st3{fill:url(#SVGID_4_);}
</style>
<g>
	<linearGradient id="SVGID_1_" gradientUnits="userSpaceOnUse" x1="102.5427" y1="5.28" x2="102.5427" y2="156.8246">
		<stop  offset="0" style="stop-color:#F66069"/>
		<stop  offset="1" style="stop-color:#F9D58B"/>
	</linearGradient>
	<path class="st0" d="M86.3,92c0.1-0.6,0.4-2.1,7-4.7c6.6-2.6,17.3-4,21.9-3s4.7,3,1,7.8c-3.7,4.8-7.8,9.5-14.1,7.9S86,93.3,86.3,92
		z"/>
	<linearGradient id="SVGID_2_" gradientUnits="userSpaceOnUse" x1="57.4757" y1="5.28" x2="57.4757" y2="156.8246">
		<stop  offset="0" style="stop-color:#F66069"/>
		<stop  offset="1" style="stop-color:#F9D58B"/>
	</linearGradient>
	<path class="st1" d="M73.8,92c-0.1-0.6-0.4-2.1-7-4.7c-6.6-2.6-17.3-4-21.9-3s-4.7,3-1,7.8c3.7,4.8,7.8,9.5,14.1,7.9
		S74,93.3,73.8,92z"/>
</g>
<linearGradient id="SVGID_3_" gradientUnits="userSpaceOnUse" x1="80.0092" y1="5.28" x2="80.0092" y2="156.8246">
	<stop  offset="0" style="stop-color:#F66069"/>
	<stop  offset="1" style="stop-color:#F9D58B"/>
</linearGradient>
<path class="st2" d="M142,54.4c0-7.4-0.6-14.8-1.4-22.2c-0.8-7.3-5.5-12.3-11.4-16.1c-6.2-4-13.4-6-20.5-7.8c-5-1.3-10-2.1-15.1-1.6
	c-0.5,0-1,0-1.4-0.2c-14.1-5.1-28-5.2-41.5,1.6c-5.8,2.9-11.5,6.1-17,9.6c-2.5,1.6-4.2,4.3-6.3,6.5c-0.4,0.4-0.8,0.9-1.3,1.2
	c-4.8,2.5-8.2,6-8.1,11.9c0.1,7.9-0.4,15.8,0.4,23.7c2.2,23.1,4.8,44.2,4.1,67.3c-0.2,5.6,2.1,9.5,7.1,12c7.3,5.2,12.3,10,20.3,13.7
	c3.9,1.8,8.2,2.6,12.4,3.8c12.3,0,24.5,0,36.8,0c1.8-0.4,3.7-0.7,5.5-1.2c2.3-0.7,4.6-1.4,6.7-2.4c8-3.9,12.9-8.3,20.7-13.5
	c3.5-2.3,6-4.8,6.8-8.9l0.1-4.5c-0.4-16.1,2.3-30.5,2.2-46.6C141,72,142.1,63.2,142,54.4z M129.1,127.6c0,1.7-0.7,3.6-2,4.6
	c-7.7,5.6-12.3,9.4-20.1,13.2c-3.4,1.7-7,2.5-10.8,2.5c-10.3,0-20.6,0.2-30.8-0.1c-3.6-0.1-7.3-1-10.6-2.4
	c-8.1-3.6-12.9-8-20.5-13.7c-1.5-0.7-1.9-2.9-1.8-4.4c0.5-20.6-2.4-37.8-1.7-58.4c0.1-4.3,1.4-8.6,2-12.9c0.4-2.8,0.8-5.7,1.2-8.8
	c12.6-0.1,23.2,4.9,33.5,10.9c-1.9,1-3.8,2.6-3.9,5.3c-0.2,5.3,2.2,6.7,8.6,7.4c6.3,0.6,10.8,1.6,10.8,5.7s-2.6,5.1-5.7,6.3
	c11.2,3.5,20.4-3,20.4-9.4c0-3.6-1.3-8.2-6.1-11c12.3-1.9,24.1-4.4,33.8-13.2c0.3,0.4,0.6,0.7,0.7,1c1.6,5.2,3.1,10.4,4.6,15.6
	c0.2,0.8,0.3,1.6,0.3,2.4C131.4,89,128.6,106.9,129.1,127.6z"/>
<linearGradient id="SVGID_4_" gradientUnits="userSpaceOnUse" x1="80.0092" y1="5.28" x2="80.0092" y2="156.8246">
	<stop  offset="0" style="stop-color:#F66069"/>
	<stop  offset="1" style="stop-color:#F9D58B"/>
</linearGradient>
<path class="st3" d="M82.3,148.4c0,1.8-1,2-2.2,2s-2.2-0.3-2.2-2s1-7.2,2.2-7.2S82.3,146.7,82.3,148.4z"/>
</svg>
