<?xml version="1.0" encoding="utf-8"?>
<!-- Generator: Adobe Illustrator 21.1.0, SVG Export Plug-In . SVG Version: 6.00 Build 0)  -->
<svg version="1.1" id="Layer_1" xmlns="http://www.w3.org/2000/svg" xmlns:xlink="http://www.w3.org/1999/xlink" x="0px" y="0px"
	 viewBox="0 0 133.3 133.3" style="enable-background:new 0 0 133.3 133.3;" xml:space="preserve">
<style type="text/css">
	.st0{fill:url(#SVGID_1_);}
</style>
<linearGradient id="SVGID_1_" gradientUnits="userSpaceOnUse" x1="66.6538" y1="133.3076" x2="66.6538" y2="-9.094947e-13">
	<stop  offset="0" style="stop-color:#F9D58B"/>
	<stop  offset="1" style="stop-color:#F66069"/>
</linearGradient>
<path class="st0" d="M132.4,69.7C132.4,69.7,132.4,69.7,132.4,69.7c0.2-0.3,0.4-0.6,0.5-0.9c0,0,0,0,0,0c0.1-0.3,0.2-0.7,0.3-1
	c0,0,0,0,0,0c0.1-0.3,0.1-0.7,0.1-1.1c0,0,0,0,0,0s0,0,0,0c0-0.4,0-0.7-0.1-1.1c0,0,0,0,0,0c-0.1-0.3-0.2-0.7-0.3-1c0,0,0,0,0,0
	c-0.1-0.3-0.3-0.6-0.5-0.9c0,0,0,0,0,0c-0.2-0.3-0.4-0.6-0.7-0.8c0,0,0,0,0,0l-20.3-20.3c-2.1-2.1-5.6-2.1-7.8,0
	c-2.1,2.1-2.1,5.6,0,7.8l10.9,10.9H72.2V18.8l10.9,10.9c1.1,1.1,2.5,1.6,3.9,1.6c1.4,0,2.8-0.5,3.9-1.6c2.1-2.1,2.1-5.6,0-7.8
	L70.5,1.6c-0.3-0.3-0.5-0.5-0.8-0.7c0,0,0,0,0,0c-0.3-0.2-0.6-0.4-0.9-0.5c0,0,0,0,0,0c-0.3-0.1-0.7-0.2-1-0.3c0,0,0,0,0,0
	C67.4,0,67,0,66.7,0s-0.7,0-1.1,0.1c0,0,0,0,0,0c-0.4,0.1-0.7,0.2-1,0.3c0,0,0,0,0,0c-0.3,0.1-0.6,0.3-0.9,0.5c0,0,0,0,0,0
	c-0.3,0.2-0.6,0.4-0.8,0.7L42.4,21.9c-2.1,2.1-2.1,5.6,0,7.8c2.1,2.1,5.6,2.1,7.8,0l10.9-10.9v42.4H18.8l10.9-10.9
	c2.1-2.1,2.1-5.6,0-7.8c-2.1-2.1-5.6-2.1-7.8,0L1.6,62.8c-0.3,0.3-0.5,0.5-0.7,0.8c0,0,0,0,0,0c-0.2,0.3-0.4,0.6-0.5,0.9
	c0,0,0,0,0,0c-0.1,0.3-0.2,0.7-0.3,1c0,0,0,0,0,0C0,65.9,0,66.3,0,66.7c0,0.4,0,0.7,0.1,1.1c0,0,0,0,0,0c0.1,0.4,0.2,0.7,0.3,1
	c0,0,0,0,0,0c0.1,0.3,0.3,0.6,0.5,0.9c0,0,0,0,0,0c0.2,0.3,0.4,0.6,0.7,0.8l20.3,20.3c1.1,1.1,2.5,1.6,3.9,1.6s2.8-0.5,3.9-1.6
	c2.1-2.1,2.1-5.6,0-7.8L18.8,72.2h42.4v42.4l-10.9-10.9c-2.1-2.1-5.6-2.1-7.8,0c-2.1,2.1-2.1,5.6,0,7.8l20.3,20.3
	c0.3,0.3,0.5,0.5,0.8,0.7c0,0,0,0,0,0c0.3,0.2,0.6,0.4,0.9,0.5c0,0,0,0,0,0c0.3,0.1,0.7,0.2,1,0.3c0,0,0,0,0,0
	c0.3,0.1,0.7,0.1,1.1,0.1s0.7,0,1.1-0.1c0,0,0,0,0,0c0.4-0.1,0.7-0.2,1-0.3c0,0,0,0,0,0c0.3-0.1,0.6-0.3,0.9-0.5c0,0,0,0,0,0
	c0.3-0.2,0.6-0.4,0.8-0.7l20.3-20.3c2.1-2.1,2.1-5.6,0-7.8c-2.1-2.1-5.6-2.1-7.8,0l-10.9,10.9V72.2h42.4l-10.9,10.9
	c-2.1,2.1-2.1,5.6,0,7.8c1.1,1.1,2.5,1.6,3.9,1.6c1.4,0,2.8-0.5,3.9-1.6l20.3-20.3c0,0,0,0,0,0C132,70.3,132.2,70,132.4,69.7z"/>
</svg>
