<?xml version="1.0" encoding="utf-8"?>
<!-- Generator: Adobe Illustrator 21.1.0, SVG Export Plug-In . SVG Version: 6.00 Build 0)  -->
<svg version="1.1" id="Layer_1" xmlns="http://www.w3.org/2000/svg" xmlns:xlink="http://www.w3.org/1999/xlink" x="0px" y="0px"
	 viewBox="0 0 160 160" style="enable-background:new 0 0 160 160;" xml:space="preserve">
<style type="text/css">
	.st0{fill:url(#SVGID_1_);}
	.st1{fill:url(#SVGID_2_);}
	.st2{fill:url(#SVGID_3_);}
	.st3{fill:url(#SVGID_4_);}
</style>
<g>
	
		<linearGradient id="SVGID_1_" gradientUnits="userSpaceOnUse" x1="80.05" y1="157.5502" x2="80.05" y2="2.3298" gradientTransform="matrix(1 0 0 -1 0 161)">
		<stop  offset="0" style="stop-color:#F66069"/>
		<stop  offset="1" style="stop-color:#F9D58B"/>
	</linearGradient>
	<path class="st0" d="M109.9,0H50.1c-8.4,0-15.3,6.8-15.3,15.3v129.3c0,8.4,6.8,15.3,15.3,15.3H110c8.4,0,15.3-6.8,15.3-15.3V15.4
		C125.2,6.9,118.4,0,109.9,0z M50.1,4.1H110c6.2,0,11.2,5.1,11.2,11.2v7.8H38.8v-7.8C38.8,9.1,43.8,4.1,50.1,4.1z M121.2,27.3V124
		H38.8V27.3H121.2z M109.9,155.9H50.1c-6.2,0-11.2-5.1-11.2-11.2V128h82.4v16.7C121.2,150.9,116.2,155.9,109.9,155.9z"/>
	
		<linearGradient id="SVGID_2_" gradientUnits="userSpaceOnUse" x1="80.05" y1="157.5502" x2="80.05" y2="2.3298" gradientTransform="matrix(1 0 0 -1 0 161)">
		<stop  offset="0" style="stop-color:#F66069"/>
		<stop  offset="1" style="stop-color:#F9D58B"/>
	</linearGradient>
	<path class="st1" d="M70,15.5h20.2c0.6,0,1-0.4,1-1s-0.4-1-1-1H70c-0.6,0-1,0.4-1,1S69.4,15.5,70,15.5z"/>
	
		<linearGradient id="SVGID_3_" gradientUnits="userSpaceOnUse" x1="64.7778" y1="157.5502" x2="64.7778" y2="2.3298" gradientTransform="matrix(1 0 0 -1 0 161)">
		<stop  offset="0" style="stop-color:#F66069"/>
		<stop  offset="1" style="stop-color:#F9D58B"/>
	</linearGradient>
	<path class="st2" d="M64.6,15.5H65c0.6,0,1-0.4,1-1s-0.4-1-1-1h-0.4c-0.6,0-1,0.4-1,1S64,15.5,64.6,15.5z"/>
	
		<linearGradient id="SVGID_4_" gradientUnits="userSpaceOnUse" x1="79.9949" y1="157.5502" x2="79.9949" y2="2.3298" gradientTransform="matrix(1 0 0 -1 0 161)">
		<stop  offset="0" style="stop-color:#F66069"/>
		<stop  offset="1" style="stop-color:#F9D58B"/>
	</linearGradient>
	<path class="st3" d="M80,133.3c-4.7,0-8.7,3.9-8.7,8.7c0,4.7,3.9,8.7,8.7,8.7c4.7,0,8.7-3.9,8.7-8.7
		C88.7,137.1,84.7,133.3,80,133.3z M80,148.6c-3.6,0-6.6-3-6.6-6.6c0-3.6,3-6.6,6.6-6.6s6.6,3,6.6,6.6
		C86.6,145.6,83.6,148.6,80,148.6z"/>
</g>
</svg>
