<?xml version="1.0" encoding="utf-8"?>
<!-- Generator: Adobe Illustrator 21.1.0, SVG Export Plug-In . SVG Version: 6.00 Build 0)  -->
<svg version="1.1" id="Layer_1" xmlns="http://www.w3.org/2000/svg" xmlns:xlink="http://www.w3.org/1999/xlink" x="0px" y="0px"
	 viewBox="0 0 160 160" style="enable-background:new 0 0 160 160;" xml:space="preserve">
<style type="text/css">
	.st0{fill:url(#SVGID_1_);}
	.st1{fill:url(#SVGID_2_);}
	.st2{fill:url(#SVGID_3_);}
	.st3{fill:url(#SVGID_4_);}
</style>
<g>
	<linearGradient id="SVGID_1_" gradientUnits="userSpaceOnUse" x1="124.9688" y1="4.9467" x2="124.9688" y2="155.6756">
		<stop  offset="0" style="stop-color:#F66069"/>
		<stop  offset="1" style="stop-color:#F9D58B"/>
	</linearGradient>
	<path class="st0" d="M125,4.9c-18.8,0-34,15.2-34,34c0,18.8,15.2,34,34,34c18.8,0,34-15.2,34-34C158.9,20.1,143.7,4.9,125,4.9z
		 M119.3,54.7l-13.6-13.6l4.5-4.5l9.1,9.1l20.4-20.4l4.5,4.5L119.3,54.7z"/>
	<linearGradient id="SVGID_2_" gradientUnits="userSpaceOnUse" x1="124.9688" y1="4.9467" x2="124.9688" y2="155.6756">
		<stop  offset="0" style="stop-color:#F66069"/>
		<stop  offset="1" style="stop-color:#F9D58B"/>
	</linearGradient>
	<path class="st1" d="M158.4,121.8c0-1.2-0.1-2.5-0.2-3.7c-3.7,0-7.1-2.3-8.6-5.9c-0.1-0.2-0.1-0.3-0.2-0.5
		c-1.5-3.6-0.6-7.6,2.1-10.2c-1.7-2.1-3.6-4.1-5.7-5.8c-2.6,2.6-6.7,3.4-10.2,1.9c-0.2-0.1-0.3-0.1-0.5-0.2l-0.1-0.1
		c-3.6-1.5-5.7-5-5.7-8.6c-1.4-0.2-2.8-0.3-4.3-0.3c-1.3,0-2.6,0.1-3.8,0.2c0,1.2-0.3,2.4-0.7,3.5c-0.9,2.2-2.7,4.1-5.2,5.1
		c-0.2,0.1-0.3,0.1-0.5,0.2c-3.6,1.5-7.6,0.6-10.2-2c-2.1,1.7-4.1,3.6-5.8,5.7c2.5,2.6,3.4,6.5,2,10.1c0,0,0,0.1-0.1,0.1l-0.2,0.4
		l0,0.1c-1.5,3.6-5,5.8-8.6,5.7c-0.2,1.4-0.3,2.8-0.3,4.2c0,0,0,0.1,0,0.1c0,1.3,0.1,2.6,0.2,3.8c3.7,0,7.1,2.3,8.6,5.9
		c0.1,0.2,0.1,0.3,0.2,0.5c1,2.4,0.9,4.9,0,7.1c-0.5,1.1-1.2,2.2-2.1,3.1c1.7,2.1,3.6,4.1,5.7,5.8c2.6-2.6,6.6-3.4,10.2-1.9
		c0.1,0.1,0.3,0.1,0.4,0.2c3.6,1.5,5.8,5,5.8,8.7c1.4,0.2,2.9,0.3,4.4,0.3c1.3,0,2.5-0.1,3.8-0.2c0-3.7,2.3-7.1,5.9-8.6
		c0.2-0.1,0.3-0.1,0.5-0.2c3.6-1.5,7.6-0.6,10.2,2.1c2.1-1.7,4.1-3.6,5.8-5.7c-2.5-2.6-3.4-6.5-1.9-10.1c0-0.1,0-0.1,0.1-0.2
		c0.1-0.2,0.1-0.3,0.2-0.5c1.5-3.6,5-5.8,8.7-5.7C158.3,124.8,158.4,123.4,158.4,121.8C158.4,121.8,158.4,121.8,158.4,121.8z
		 M112.5,121.9C112.5,121.8,112.5,121.8,112.5,121.9c0.1-7,5.6-12.5,12.5-12.5c6.9,0,12.5,5.6,12.5,12.4c0,0,0,0.1,0,0.1
		c0,6.9-5.6,12.5-12.5,12.5C118.1,134.4,112.5,128.8,112.5,121.9z"/>
	<linearGradient id="SVGID_3_" gradientUnits="userSpaceOnUse" x1="37.1371" y1="4.9467" x2="37.1371" y2="155.6756">
		<stop  offset="0" style="stop-color:#F66069"/>
		<stop  offset="1" style="stop-color:#F9D58B"/>
	</linearGradient>
	<path class="st2" d="M73.3,21.4c-2.3,1.6-6.4,1-6.4,1s2.9-1.7,4.7-6.7c-1.6,1.6-6.3,2-7.4,2.1c-3.4-6.3-9.5-10.6-16.6-10.6
		c-10,0-18.1,8.4-19.3,19.2c-6.5-1.2-16.8-4.8-20.5-16.1c-8.3,14.8-3.3,33.9,10,38.9c-3.9,2.7-9.3,4.2-16.8,2.6
		c13.5,29.7,63,24.2,66-20c0,0-0.1,0-0.1,0c0.1-0.9,0.2-1.8,0.2-2.7c0-0.5-0.1-0.9-0.1-1.4C69,27,71.8,25.4,73.3,21.4z"/>
	<linearGradient id="SVGID_4_" gradientUnits="userSpaceOnUse" x1="35.7015" y1="4.9467" x2="35.7015" y2="155.6756">
		<stop  offset="0" style="stop-color:#F66069"/>
		<stop  offset="1" style="stop-color:#F9D58B"/>
	</linearGradient>
	<path class="st3" d="M66.9,104.4c-0.6-0.6-1.3-0.9-2.1-0.9V99c0-0.8-0.3-1.5-0.9-2.1c-0.6-0.6-1.3-0.9-2.1-0.9H31.2v-4.6
		c0-0.8-0.3-1.5-0.9-2.1c-0.6-0.6-1.3-0.9-2.1-0.9H9.5c-0.8,0-1.5,0.3-2.1,0.9c-0.6,0.6-0.9,1.3-0.9,2.1v12.1
		c-0.8,0-1.5,0.3-2.1,0.9c-0.6,0.6-0.9,1.3-0.9,2.1v45.8c0,0.8,0.3,1.5,0.9,2.1c0.6,0.6,1.3,0.9,2.1,0.9h58.2c0.8,0,1.5-0.3,2.1-0.9
		c0.6-0.6,0.9-1.3,0.9-2.1v-45.8C67.7,105.7,67.5,105,66.9,104.4z M9.5,103.5v-1.2c0-0.8,0.3-1.5,0.9-2.1c0.6-0.6,1.3-0.9,2.1-0.9
		h46.4c0.8,0,1.5,0.3,2.1,0.9c0.6,0.6,0.9,1.3,0.9,2.1v1.2H9.5z"/>
</g>
</svg>
