<?xml version="1.0" encoding="utf-8"?>
<!-- Generator: Adobe Illustrator 21.1.0, SVG Export Plug-In . SVG Version: 6.00 Build 0)  -->
<svg version="1.1" id="Layer_1" xmlns="http://www.w3.org/2000/svg" xmlns:xlink="http://www.w3.org/1999/xlink" x="0px" y="0px"
	 viewBox="0 0 160 160" style="enable-background:new 0 0 160 160;" xml:space="preserve">
<style type="text/css">
	.st0{fill:url(#SVGID_1_);}
	.st1{fill:url(#SVGID_2_);}
	.st2{fill:url(#SVGID_3_);}
	.st3{fill:url(#SVGID_4_);}
</style>
<g>
	<linearGradient id="SVGID_1_" gradientUnits="userSpaceOnUse" x1="24.7309" y1="36.8" x2="24.7309" y2="124.0067">
		<stop  offset="0" style="stop-color:#F66069"/>
		<stop  offset="1" style="stop-color:#F9D58B"/>
	</linearGradient>
	<path class="st0" d="M38.3,35.7H11.1C5.2,35.7,0,40.9,0,46.8v66.4c0,6,5.1,11.1,11.1,11.1h27.2c6,0,11.1-5.1,11.1-11.1V46.8
		C49.4,40.9,44.3,35.7,38.3,35.7z M30.7,103H23V63.8l-6.8,2.6l-1.7-6.8l11.1-3.4h5.1V103z"/>
	<linearGradient id="SVGID_2_" gradientUnits="userSpaceOnUse" x1="80.05" y1="36.8" x2="80.05" y2="124.0067">
		<stop  offset="0" style="stop-color:#F66069"/>
		<stop  offset="1" style="stop-color:#F9D58B"/>
	</linearGradient>
	<path class="st1" d="M93.7,35.7H66.4c-6,0-11.1,5.1-11.1,11.1v66.4c0,6,5.1,11.1,11.1,11.1h27.2c6,0,11.1-5.1,11.1-11.1V46.8
		C104.7,40.9,99.6,35.7,93.7,35.7z M94.5,103H64.7v-6l14.5-15.3c5.1-5.1,6.8-8.5,6.8-11.9c0-4.3-2.6-6.8-6.8-6.8c-3.4,0-6,1.7-9.4,6
		l-4.3-5.1c3.4-5.1,8.5-8.5,15.3-8.5c7.7,0,13.6,5.1,13.6,12.8l0,0c0,6-2.6,10.2-9.4,17L74.9,96.2h18.7v6.8H94.5z"/>
	<g>
		<linearGradient id="SVGID_3_" gradientUnits="userSpaceOnUse" x1="135.3692" y1="36.8" x2="135.3692" y2="124.0067">
			<stop  offset="0" style="stop-color:#F66069"/>
			<stop  offset="1" style="stop-color:#F9D58B"/>
		</linearGradient>
		<path class="st2" d="M148.1,35.7h-0.9l-10.2,11.9c6.8,0.9,11.9,5.1,11.9,12.8l0,0c0,8.5-6,14.5-15.3,14.5c-6.8,0-11.1-2.6-14.5-6
			l5.1-5.1c2.6,2.6,6,5.1,10.2,5.1s7.7-2.6,7.7-7.7l0,0c0-5.1-4.3-7.7-10.2-7.7h-2.6l-1.7-5.1l11.1-12.8h-17
			c-6.8,0-11.1,5.1-11.1,11.1v66.4c0,5.1,3.4,9.4,7.7,10.2l-0.9-4.3l22.1-30.6h6.8v29.8h6v5.1c4.3-1.7,7.7-5.1,7.7-10.2V46.8
			C159.2,40.9,154.9,35.7,148.1,35.7z"/>
		<linearGradient id="SVGID_4_" gradientUnits="userSpaceOnUse" x1="132.3904" y1="36.8" x2="132.3904" y2="124.0067">
			<stop  offset="0" style="stop-color:#F66069"/>
			<stop  offset="1" style="stop-color:#F9D58B"/>
		</linearGradient>
		<polygon class="st3" points="138.8,118.3 138.8,99.6 126,118.3 		"/>
	</g>
</g>
</svg>
