<?xml version="1.0" encoding="utf-8"?>
<!-- Generator: Adobe Illustrator 21.1.0, SVG Export Plug-In . SVG Version: 6.00 Build 0)  -->
<svg version="1.1" id="ARTBOARD_2" xmlns="http://www.w3.org/2000/svg" xmlns:xlink="http://www.w3.org/1999/xlink" x="0px" y="0px"
	 viewBox="0 0 240.7 200.3" style="enable-background:new 0 0 240.7 200.3;" xml:space="preserve">
<style type="text/css">
	.st0{fill:url(#SVGID_1_);}
</style>
<linearGradient id="SVGID_1_" gradientUnits="userSpaceOnUse" x1="120.3331" y1="200.3264" x2="120.3331" y2="-9.094947e-13">
	<stop  offset="0" style="stop-color:#2880B8"/>
	<stop  offset="1" style="stop-color:#39B6B0"/>
</linearGradient>
<path class="st0" d="M223,22.3c-14.8-12.6-32.1-16.6-38.7-9l0,0l0,0.1c0,0,0,0,0,0c0,0,0,0,0,0l-83.7,98.5h0c0.4,0.3,0.8,0.7,1.2,1
	c-0.4-0.3-0.8-0.6-1.2-1L94,147.8h0l-6.2,33.7c-6.1,1.1-11.9,1.7-17.4,1.7c-2.8,0-5.5-0.1-8-0.4c-2.6-0.3-5-0.8-7.3-1.5
	c-4.6-1.3-8.3-3.4-11.3-6c-3-2.6-5.4-5.7-7.5-9.3c-1-1.7-1.7-3.3-2.2-4.9c-0.6-1.6-0.8-3.2-1-4.9c-0.3-3.3,0-6.9,1-10.9
	c1-4,2.5-8.4,4.5-12.8c2-4.5,4.3-9.1,6.9-13.8c2.6-4.7,5.4-9.5,8.2-14.5l4.3-7.6c1.4-2.6,2.9-5.3,4.3-8.2c0.7-1.4,1.4-2.9,2.1-4.4
	l0.6-1.3c0.2-0.5,0.4-0.9,0.6-1.4c0.4-0.9,0.7-1.8,1-2.7c1.3-3.6,2.2-7.1,2.8-10.6c1.3-7,1.6-14.1,0.8-21.1c-0.8-7-2.6-14-5.8-20.5
	C61.4,19.9,56.8,14,51.2,9.6c-2.8-2.2-5.8-4-8.9-5.4c-3.1-1.4-6.2-2.5-9.4-3.1c-6.3-1.4-12.6-1.4-18.6-0.4
	c5.5,2.6,10.6,5.5,14.8,8.9c1.1,0.8,2.1,1.7,3,2.6c1,0.9,1.9,1.8,2.7,2.8c1.7,1.9,3.1,3.9,4.3,5.9c2.4,4.1,3.8,8.4,4.4,12.9
	c0.7,4.4,0.6,9,0,13.6c-0.6,4.6-1.7,9.1-3.3,13.3c-0.8,2.1-1.7,4.1-2.7,5.9c-0.2,0.4-0.5,0.9-0.7,1.3l-0.4,0.6l-0.4,0.7
	c-0.6,1-1.4,2.1-2.1,3.2c-1.5,2.2-3,4.5-4.6,6.8l-4.8,7.2c-3.3,4.9-6.5,10-9.6,15.4C12,107,9,112.7,6.5,119
	c-2.5,6.2-4.7,12.9-5.7,20.3c-0.3,1.8-0.5,3.7-0.6,5.7C0,146.9,0,148.9,0,150.9c0.1,4,0.7,8.1,1.7,12.1c1.1,4,2.6,8,4.6,11.6
	c2,3.6,4.4,6.9,7.1,9.7c5.1,5.4,11.6,10.2,18.8,13c7.3,2.9,15,3.7,22.1,2.8c7.1-0.9,13.4-3.3,19-6.4c1.4-0.8,2.8-1.7,4.1-2.5
	c1.3-0.9,2.6-1.9,3.8-2.8c2.4-2,4.7-4.1,6.6-6.6l32.3-11.6h0l34.4-12.3l83.7-98.6l0,0C244.7,51.4,237.9,34.9,223,22.3z M103.1,113.7
	c-0.1-0.1-0.2-0.1-0.3-0.2C102.9,113.6,103,113.7,103.1,113.7z M104.4,114.5C104.4,114.5,104.4,114.5,104.4,114.5
	C104.4,114.5,104.4,114.5,104.4,114.5z M118.5,165.6c-0.2-0.3-0.4-0.7-0.6-1.1c0-0.1-0.1-0.1-0.1-0.2c-0.2-0.3-0.4-0.7-0.6-1
	c-0.1-0.1-0.1-0.2-0.2-0.3c-0.2-0.3-0.4-0.6-0.6-0.9c-0.1-0.1-0.2-0.3-0.3-0.4c-0.2-0.3-0.4-0.6-0.6-0.9c-0.1-0.2-0.2-0.3-0.3-0.5
	c-0.2-0.3-0.4-0.6-0.6-0.8c-0.1-0.2-0.3-0.3-0.4-0.5c-0.2-0.3-0.5-0.6-0.7-0.8c-0.2-0.2-0.3-0.4-0.5-0.5c-0.3-0.3-0.6-0.6-0.9-0.9
	c-0.2-0.2-0.3-0.3-0.4-0.5c-0.5-0.4-0.9-0.9-1.4-1.3c-0.5-0.4-0.9-0.8-1.4-1.1c-0.2-0.1-0.4-0.3-0.5-0.4c-0.3-0.2-0.6-0.4-0.9-0.6
	c-0.2-0.2-0.5-0.3-0.7-0.4c-0.2-0.1-0.5-0.3-0.7-0.4c-0.3-0.2-0.6-0.3-0.8-0.5c-0.2-0.1-0.4-0.2-0.6-0.3c-0.3-0.2-0.6-0.3-0.9-0.5
	c-0.1-0.1-0.3-0.1-0.4-0.2c-0.4-0.2-0.7-0.3-1-0.5c-0.1,0-0.2-0.1-0.3-0.1c-0.4-0.2-0.8-0.3-1.1-0.5c0,0-0.1,0-0.1,0
	c-0.4-0.2-0.8-0.3-1.2-0.4l6.2-33.8c13.5,7.2,33.2,6.1,33.2,6.1s2.3,20.5,12.1,32.6c0,0,0,0,0,0L118.5,165.6z M152.6,155.8
	c0.1,0.1,0.2,0.2,0.2,0.2C152.7,156,152.7,155.9,152.6,155.8z"/>
</svg>
