<?xml version="1.0" encoding="utf-8"?>
<!-- Generator: Adobe Illustrator 21.1.0, SVG Export Plug-In . SVG Version: 6.00 Build 0)  -->
<svg version="1.1" id="Layer_1" xmlns="http://www.w3.org/2000/svg" xmlns:xlink="http://www.w3.org/1999/xlink" x="0px" y="0px"
	 viewBox="0 0 160 160" style="enable-background:new 0 0 160 160;" xml:space="preserve">
<style type="text/css">
	.st0{fill:url(#SVGID_1_);}
</style>
<linearGradient id="SVGID_1_" gradientUnits="userSpaceOnUse" x1="79.8953" y1="146.2582" x2="79.8953" y2="14.7417">
	<stop  offset="0" style="stop-color:#F9D58B"/>
	<stop  offset="1" style="stop-color:#F66069"/>
</linearGradient>
<path class="st0" d="M147.3,29.4c-9.7-8.3-21.1-10.9-25.4-5.9l0,0l0,0l0,0l0,0L67,88.2c0.3,0.2,0.5,0.4,0.8,0.6
	c-0.3-0.2-0.5-0.4-0.8-0.6l-4.3,23.6l-4.1,22.1c-4,0.7-7.8,1.1-11.4,1.1c-1.8,0-3.6-0.1-5.3-0.3c-1.7-0.2-3.3-0.5-4.8-1
	c-3-0.9-5.4-2.2-7.4-3.9c-2-1.7-3.5-3.8-4.9-6.1c-0.7-1.1-1.1-2.2-1.5-3.2c-0.4-1-0.5-2.1-0.7-3.2c-0.2-2.2,0-4.5,0.6-7.2
	c0.6-2.6,1.7-5.5,3-8.4c1.3-2.9,2.9-6,4.5-9c1.7-3.1,3.5-6.2,5.4-9.5l2.8-5c0.9-1.7,1.9-3.5,2.8-5.4c0.5-0.9,0.9-1.9,1.4-2.9
	l0.4-0.8c0.1-0.3,0.3-0.6,0.4-0.9c0.2-0.6,0.5-1.2,0.7-1.8c0.8-2.3,1.4-4.7,1.9-7c0.9-4.6,1-9.3,0.5-13.9c-0.5-4.6-1.7-9.2-3.8-13.5
	c-2.1-4.3-5.1-8.1-8.7-11c-1.8-1.4-3.8-2.6-5.8-3.6c-2-0.9-4.1-1.6-6.2-2.1c-4.2-0.9-8.3-0.9-12.2-0.3c3.6,1.7,6.9,3.6,9.7,5.8
	c0.7,0.5,1.4,1.1,2,1.7c0.6,0.6,1.2,1.2,1.8,1.8c1.1,1.3,2,2.5,2.8,3.9c1.6,2.7,2.5,5.5,2.9,8.5c0.4,2.9,0.4,5.9,0,8.9
	c-0.4,3-1.1,6-2.2,8.7c-0.5,1.4-1.1,2.7-1.7,3.9c-0.2,0.3-0.3,0.6-0.5,0.8l-0.2,0.4l-0.3,0.4c-0.4,0.7-0.9,1.4-1.4,2.1
	c-1,1.4-2,2.9-3,4.5l-3.2,4.7c-2.1,3.2-4.3,6.6-6.3,10.1c-2,3.6-4,7.3-5.6,11.4c-1.6,4.1-3.1,8.5-3.8,13.4c-0.2,1.2-0.3,2.5-0.4,3.7
	c-0.1,1.3-0.1,2.6-0.1,3.9c0.1,2.6,0.5,5.3,1.1,7.9c0.7,2.6,1.7,5.2,3.1,7.6c1.3,2.4,2.9,4.5,4.6,6.4c3.3,3.6,7.6,6.7,12.4,8.5
	c4.8,1.9,9.9,2.4,14.5,1.8c4.6-0.6,8.8-2.2,12.5-4.2c0.9-0.5,1.8-1.1,2.7-1.7c0.9-0.6,1.7-1.2,2.5-1.9c1.6-1.3,3.1-2.7,4.3-4.3
	l21.2-7.6h0l22.6-8.1l55-64.7l0,0C161.5,48.5,157.1,37.7,147.3,29.4z M68.6,89.4c0,0-0.1-0.1-0.1-0.1C68.5,89.3,68.5,89.4,68.6,89.4
	z M78.7,123.5c-0.1-0.2-0.2-0.5-0.4-0.7c0,0,0-0.1-0.1-0.1c-0.1-0.2-0.2-0.4-0.4-0.7c0-0.1-0.1-0.1-0.1-0.2
	c-0.1-0.2-0.2-0.4-0.4-0.6c-0.1-0.1-0.1-0.2-0.2-0.3c-0.1-0.2-0.3-0.4-0.4-0.6c-0.1-0.1-0.1-0.2-0.2-0.3c-0.1-0.2-0.3-0.4-0.4-0.5
	c-0.1-0.1-0.2-0.2-0.3-0.3c-0.1-0.2-0.3-0.4-0.5-0.5c-0.1-0.1-0.2-0.2-0.3-0.3c-0.2-0.2-0.4-0.4-0.6-0.6c-0.1-0.1-0.2-0.2-0.3-0.3
	c-0.3-0.3-0.6-0.6-1-0.9c-0.3-0.3-0.6-0.5-0.9-0.7c-0.1-0.1-0.3-0.2-0.4-0.3c-0.2-0.1-0.4-0.3-0.5-0.4c-0.2-0.1-0.3-0.2-0.5-0.3
	c-0.1-0.1-0.3-0.2-0.4-0.3c-0.2-0.1-0.4-0.2-0.6-0.3c-0.1-0.1-0.2-0.1-0.3-0.2c-0.2-0.1-0.5-0.2-0.7-0.3c-0.1,0-0.1-0.1-0.2-0.1
	c-0.3-0.1-0.5-0.2-0.7-0.3c0,0-0.1,0-0.1,0c-0.3-0.1-0.5-0.2-0.8-0.3c0,0,0,0,0,0c-0.3-0.1-0.5-0.2-0.8-0.3l4.1-22.2
	c8.8,4.7,21.8,4,21.8,4s1.5,13.5,7.9,21.4L78.7,123.5z M101.1,117c0.1,0.1,0.1,0.1,0.2,0.2C101.2,117.1,101.1,117.1,101.1,117z"/>
</svg>
