<?xml version="1.0" encoding="utf-8"?>
<!-- Generator: Adobe Illustrator 19.0.0, SVG Export Plug-In . SVG Version: 6.00 Build 0)  -->
<svg version="1.1" id="Layer_1" xmlns="http://www.w3.org/2000/svg" xmlns:xlink="http://www.w3.org/1999/xlink" x="0px" y="0px"
	 viewBox="0 0 100 100" style="enable-background:new 0 0 100 100;" xml:space="preserve">
<path id="XMLID_12_" d="M49.9,0c14,0,25.9,4.8,35.5,14.5C95.1,24.2,100,36,100,50c0,14-4.8,25.7-14.3,35.1
	C75.6,95,63.7,100,49.9,100c-13.5,0-25.2-4.9-35.2-14.7C4.9,75.4,0,63.7,0,50c0-13.7,4.9-25.5,14.7-35.5C24.4,4.8,36.1,0,49.9,0z
	 M50.1,9c-11.4,0-21,4-28.8,12C13.1,29.3,9,39,9,50c0,11.1,4,20.7,12.1,28.7c8.1,8.1,17.7,12.1,28.9,12.1c11.1,0,20.8-4.1,29.1-12.2
	C87.1,71.1,91,61.5,91,50c0-11.4-4-21-12-29C71,13,61.4,9,50.1,9z M63.5,37.6V58h-5.7v24.3H42.2V58h-5.7V37.6c0-0.9,0.3-1.7,0.9-2.3
	c0.6-0.6,1.4-0.9,2.3-0.9h20.5c0.8,0,1.6,0.3,2.2,0.9C63.2,35.9,63.5,36.7,63.5,37.6z M43,24.7c0-4.7,2.3-7.1,7-7.1s7,2.4,7,7.1
	c0,4.6-2.3,7-7,7S43,29.4,43,24.7z"/>
</svg>
