<?xml version="1.0" encoding="utf-8"?>
<!-- Generator: Adobe Illustrator 19.0.0, SVG Export Plug-In . SVG Version: 6.00 Build 0)  -->
<svg version="1.1" id="Layer_1" xmlns="http://www.w3.org/2000/svg" xmlns:xlink="http://www.w3.org/1999/xlink" x="0px" y="0px"
	 viewBox="0 0 100 100" style="enable-background:new 0 0 100 100;" xml:space="preserve">
<path d="M49.9,0c14,0,25.9,4.8,35.5,14.5C95.1,24.1,100,36,100,50c0,14.1-4.8,25.7-14.3,35.1C75.6,95,63.7,100,49.9,100
	c-13.6,0-25.3-4.9-35.2-14.8C4.9,75.4,0,63.6,0,50c0-13.7,4.9-25.5,14.7-35.5C24.4,4.8,36.1,0,49.9,0z M11.2,36.5
	C9.8,40.6,9,45.1,9,50c0,11.1,4,20.7,12.1,28.8c8.2,8,17.8,12.1,28.9,12.1c11.3,0,21-4.1,29.1-12.2c2.9-2.8,5.2-5.7,6.9-8.8
	l-18.8-8.4c-0.7,3.2-2.2,5.7-4.8,7.7c-2.5,2-5.5,3.1-9,3.4v7.7h-5.8v-7.7c-5.5-0.1-10.6-2.1-15.2-6l6.9-7c3.3,3,7,4.6,11.2,4.6
	c1.7,0,3.2-0.4,4.4-1.2c1.2-0.8,1.8-2,1.8-3.8c0-1.3-0.4-2.3-1.3-3l-4.8-2.1l-5.9-2.7l-7.9-3.5L11.2,36.5z M50.1,8.9
	c-11.4,0-21,4-28.8,12.1c-2,2-3.8,4.2-5.5,6.7l19.1,8.6c0.8-2.6,2.4-4.7,4.7-6.3c2.3-1.6,5-2.5,8.1-2.6v-7.7h5.8v7.7
	c4.6,0.2,8.7,1.8,12.5,4.6l-6.5,6.7c-2.8-2-5.7-2.9-8.6-2.9c-1.5,0-2.9,0.3-4.1,0.9c-1.2,0.6-1.8,1.6-1.8,3c0,0.4,0.1,0.8,0.4,1.2
	l6.3,2.9l4.4,2l8,3.6l25.6,11.4C90.6,57.2,91,53.6,91,50c0-11.5-4-21.2-12-29C71.1,12.9,61.5,8.9,50.1,8.9z"/>
</svg>
