<?xml version="1.0" encoding="utf-8"?>
<!-- Generator: Adobe Illustrator 19.0.0, SVG Export Plug-In . SVG Version: 6.00 Build 0)  -->
<svg version="1.1" id="Layer_1" xmlns="http://www.w3.org/2000/svg" xmlns:xlink="http://www.w3.org/1999/xlink" x="0px" y="0px"
	 viewBox="0 0 100 100" style="enable-background:new 0 0 100 100;" xml:space="preserve">
<path id="text2809_1_" d="M50,21.2c-16.5,0-20.7,15.6-20.7,28.8c0,13.2,4.1,28.8,20.7,28.8c16.5,0,20.7-15.6,20.7-28.8
	C70.7,36.8,66.5,21.2,50,21.2z M50,32.1c0.7,0,1.3,0.1,1.9,0.2c1.2,1,1.8,2.4,0.6,4.4l-11,20.2c-0.3-2.6-0.4-5.1-0.4-6.9
	C41.1,44.2,41.5,32.1,50,32.1z M58.2,41.4c0.6,3.1,0.7,6.3,0.7,8.6c0,5.8-0.4,17.9-8.9,17.9c-0.7,0-1.3-0.1-1.9-0.2
	c-0.1,0-0.2-0.1-0.3-0.1c-0.2-0.1-0.4-0.1-0.5-0.2c-1.9-0.8-3.1-2.3-1.4-4.8L58.2,41.4z"/>
<path id="path2815_1_" d="M49.9,0C36,0,24.3,4.8,14.8,14.5C10,19.4,6.3,24.9,3.7,31C1.2,37.1,0,43.4,0,50c0,6.7,1.2,13,3.7,19
	c2.5,6,6.1,11.4,10.9,16.2c4.8,4.8,10.2,8.4,16.2,11c6.1,2.5,12.4,3.7,19,3.7c6.6,0,13-1.3,19.2-3.9c6.2-2.6,11.7-6.2,16.6-11.1
	c4.7-4.6,8.3-9.8,10.6-15.8c2.4-6,3.6-12.4,3.6-19.3c0-6.8-1.2-13.2-3.6-19.2c-2.4-6.1-6-11.4-10.7-16.1C75.8,4.9,63.9,0,49.9,0z
	 M50.1,9c11.3,0,21,4,29,12c3.9,3.9,6.8,8.3,8.9,13.2c2,4.9,3,10.2,3,15.7c0,11.5-3.9,21-11.7,28.6c-4,3.9-8.6,6.9-13.7,9
	c-5,2.1-10.2,3.1-15.5,3.1c-5.4,0-10.6-1-15.5-3c-4.9-2.1-9.4-5.1-13.3-8.9c-3.9-3.9-7-8.4-9.1-13.3C10.1,60.5,9,55.4,9,50
	c0-5.4,1.1-10.6,3.2-15.5c2.1-5,5.2-9.5,9.1-13.5C29,13,38.7,9,50.1,9z"/>
</svg>
