<?xml version="1.0" encoding="utf-8"?>
<!-- Generator: Adobe Illustrator 19.0.0, SVG Export Plug-In . SVG Version: 6.00 Build 0)  -->
<svg version="1.1" id="Layer_1" xmlns="http://www.w3.org/2000/svg" xmlns:xlink="http://www.w3.org/1999/xlink" x="0px" y="0px"
	 viewBox="0 0 100 100" style="enable-background:new 0 0 100 100;" xml:space="preserve">
<g>
	<path d="M33.5,37.8c-0.5-0.1-1-0.2-1.6-0.2c-0.1,0-0.1,0-0.2,0c-0.5,0-1.1,0-1.6,0c-0.1,0-0.1,0-0.2,0c-2.4,0.2-4.6,1-6.4,2.4
		c-4,3.1-5.6,7.2-4.8,12.2c0.8,4.9,4.8,9,9.7,10c0.5,0.1,1,0.2,1.6,0.3c0.7,0,1.3,0,2,0c0.5-0.1,1-0.1,1.6-0.3c4.9-1,8.8-5,9.7-10
		C44.4,45.6,40.1,39.2,33.5,37.8z M31,59.8c-5.4,0-9.8-4.4-9.8-9.8c0-5.4,4.4-9.8,9.8-9.8c5.4,0,9.8,4.4,9.8,9.8
		C40.8,55.4,36.4,59.8,31,59.8z"/>
	<path d="M60.1,37.7c-0.4-0.1-0.9-0.1-1.4-0.2c-0.5,0-1,0-1.6,0c-0.6,0.1-1.1,0.1-1.7,0.3c-4.1,0.9-7.1,3.2-8.8,7
		C44.2,50,45.6,55.9,50,59.6c1.9,1.6,4.2,2.6,6.7,2.8c0.1,0,0.1,0,0.2,0c0.7,0,1.3,0,2,0c0.1,0,0.1,0,0.2,0c2-0.2,3.9-0.8,5.5-1.9
		c3.5-2.3,5.5-5.7,5.7-9.9c0.2-2.7-0.5-5.2-2-7.5C66.3,40.2,63.6,38.4,60.1,37.7z M57.9,59.8c-5.4,0-9.8-4.4-9.8-9.8
		c0-5.4,4.4-9.8,9.8-9.8c5.4,0,9.8,4.4,9.8,9.8C67.7,55.4,63.3,59.8,57.9,59.8z"/>
	<path d="M3.1,46.6c-0.1,0-0.1,0.1-0.2,0.1c0-2.2,0-4.4,0-6.6c0.1,0,0.2,0,0.3,0c3.5,0,7.1,0,10.6,0c0.1,0,0.2,0,0.3,0
		c0.3,0,0.5-0.1,0.5-0.5c0-0.5,0.1-0.9,0-1.4c0-0.4-0.3-0.6-0.7-0.6c-4.1,0-8.2,0-12.4,0c-0.6,0-1,0.4-1.1,0.9c0,0.1,0,0.3,0,0.4
		c0,3.5,0,7,0,10.6c0,0.1,0,0.2,0,0.2c0,0.3,0.2,0.6,0.5,0.7c0.3,0.1,0.7,0.2,1,0.2c0.3,0,0.6-0.1,0.8-0.4c0.7-0.9,1.5-1.6,2.5-2.2
		c1.2-0.7,2.5-1,3.9-0.8c3.3,0.6,5.9,3.7,5.2,7.5c-0.6,3.3-4,5.6-7.3,4.9c-2.3-0.5-3.8-1.8-4.8-4c-0.2-0.5-0.4-0.6-0.9-0.5
		c-0.6,0.1-1.1,0.3-1.5,0.8c0,0.1,0,0.2,0,0.3c0.4,1,0.8,1.9,1.5,2.6c1.6,1.9,3.7,3,6.2,3.2c0.1,0,0.2,0,0.2,0c0.3,0,0.6,0,0.9,0
		c0.3,0,0.7-0.1,1-0.1c5.1-0.9,8.4-6.1,6.9-11.1C14.9,45.4,8,43,3.1,46.6z"/>
	<path d="M99.7,39.7c0.1-0.1,0.2-0.3,0.3-0.4c0-0.1,0-0.2,0-0.3c-0.2-0.4-0.4-0.7-0.7-0.9c-0.5-0.4-0.8-0.4-1.2,0.1
		c-1.1,1.1-2.3,2.3-3.4,3.4c-0.3,0.3-0.6,0.7-1,1c-0.1-0.1-0.1-0.1-0.2-0.2c-1.4-1.4-2.9-2.9-4.3-4.3c-0.4-0.4-0.7-0.4-1.1-0.1
		c-0.2,0.2-0.4,0.4-0.6,0.6c-0.3,0.4-0.3,0.7,0.1,1.1c1.2,1.2,2.4,2.4,3.6,3.6c0.3,0.3,0.6,0.6,0.9,0.9c-0.1,0.1-0.2,0.1-0.3,0.2
		c-1.4,1.4-2.8,2.8-4.2,4.2c-0.3,0.3-0.4,0.6-0.1,1c0.1,0.2,0.3,0.4,0.5,0.5c0.5,0.4,0.9,0.4,1.3,0c1-1,2-2,2.9-3
		c0.5-0.5,0.9-0.9,1.4-1.4c0.1,0.1,0.2,0.1,0.2,0.2c1.4,1.4,2.8,2.8,4.2,4.2c0.4,0.4,0.7,0.4,1.2,0.1c0.4-0.3,0.6-0.6,0.8-1
		c0-0.1,0-0.2,0-0.3c-0.1-0.2-0.2-0.3-0.4-0.5c-1.4-1.4-2.8-2.8-4.2-4.2c0,0-0.1-0.1-0.2-0.2c0.1-0.1,0.1-0.1,0.2-0.2
		C96.8,42.6,98.3,41.2,99.7,39.7z"/>
	<path d="M76.4,38.5c-2.2,1.2-3.3,3.2-3.4,5.7c-0.1,1.8,0,3.7,0,5.6c0,0,0,0,0,0c0,1.9,0,3.8,0,5.7c0,0.5,0.2,0.7,0.7,0.8
		c0.3,0,0.6,0.1,0.9,0c0.7-0.1,0.9-0.3,0.9-1c0-3.6,0-7.2,0-10.8c0-0.4,0-0.8,0.1-1.1c0.5-2.2,2.5-3.6,4.6-3.3
		c1.7,0.3,3.1,1.7,3.4,3.3c0.3,1.5-0.7,3.5-2.2,4.3c-0.7,0.4-1.5,0.5-2.3,0.5c-0.4,0-0.6,0.1-0.7,0.6c-0.1,0.4-0.1,0.8-0.1,1.2
		c0,0.4,0.2,0.6,0.6,0.6c0.5,0,1.1,0.1,1.6,0c3.4-0.5,6.4-3.8,5.5-7.8C84.8,38.6,80.1,36.3,76.4,38.5z"/>
</g>
</svg>
