<?xml version="1.0" encoding="utf-8"?>
<!-- Generator: Adobe Illustrator 19.0.0, SVG Export Plug-In . SVG Version: 6.00 Build 0)  -->
<svg version="1.1" id="Layer_1" xmlns="http://www.w3.org/2000/svg" xmlns:xlink="http://www.w3.org/1999/xlink" x="0px" y="0px"
	 viewBox="0 0 100 100" style="enable-background:new 0 0 100 100;" xml:space="preserve">
<g>
	<path d="M92.9,43.7c1.7-0.1,3.2,0.4,4.7,1.1c0.2,0.1,0.4,0.2,0.7,0.3c0.6-1.4,1.2-2.8,1.7-4.2c0-0.1,0-0.2,0-0.3
		c-0.2-0.1-0.3-0.1-0.5-0.2c-2.9-1.2-5.8-1.7-8.9-1.1c-4,0.8-6.1,3.8-5.2,7.7c0.4,1.7,1.5,3,3,3.8c1.3,0.7,2.6,1.3,4,2
		c0.5,0.2,1,0.5,1.4,0.9c0.8,0.7,0.6,1.8-0.3,2.2c-0.4,0.2-0.8,0.3-1.2,0.3c-2.3,0.1-4.4-0.5-6.5-1.4c-0.2-0.1-0.4-0.2-0.7-0.3
		c0,1.4,0,2.7,0,3.9c0,1.2,0,1.3,1.2,1.6c1.3,0.4,2.7,0.6,4.1,0.9c0.8,0,1.6,0,2.4,0c0.7-0.1,1.3-0.2,2-0.4c2.7-0.7,4.6-2.2,5.2-5
		c0,0,0.1-0.1,0.1-0.1c0-0.8,0-1.7,0-2.5c-0.5-2.4-2.1-3.7-4.1-4.7c-1.2-0.6-2.5-1.2-3.7-1.8c-0.9-0.5-1.3-1.1-1.1-1.7
		C91.2,44.1,91.8,43.7,92.9,43.7z"/>
	<path d="M45.7,50.7c-0.2-0.3-0.3-0.6-0.1-0.9c1.7-2.7,3.4-5.5,5.2-8.3c0.4-0.7,0.8-1.3,1.3-2.1c-0.3,0-0.5,0-0.6,0
		c-1.8,0-3.5,0-5.3,0c-0.5,0-0.7,0.2-0.9,0.6c-1,1.8-2,3.6-3,5.4c-0.1,0.2-0.2,0.3-0.3,0.6c-0.2-0.3-0.4-0.6-0.5-0.9
		c-1-1.7-2-3.5-3-5.2c-0.2-0.3-0.4-0.5-0.8-0.5c-1.5,0-3.1,0-4.6,0c-0.4,0-0.7,0-1.2,0c2.3,3.5,4.4,7,6.6,10.4
		c-2.3,3.6-4.7,7.2-7.1,10.9c2.2,0,4.2,0,6.3,0c0.2,0,0.4-0.2,0.5-0.4c1.2-1.9,2.3-3.8,3.5-5.7c0.1-0.1,0.2-0.3,0.3-0.5
		c1.3,2.1,2.6,4.1,3.8,6.2c0.2,0.3,0.4,0.5,0.8,0.4c1.9,0,3.7,0,5.6,0c0.2,0,0.3,0,0.5,0c-0.2-0.3-0.4-0.5-0.5-0.8
		C49.9,56.8,47.8,53.7,45.7,50.7z"/>
	<path d="M11,39.9c-0.8-0.2-1.7-0.4-2.5-0.4c-2.8-0.1-5.5,0-8.3,0c-0.1,0-0.2,0-0.3,0.1c0,7.1,0,14.1,0,21.2c1.9,0,3.8,0,5.7,0
		c0-1.2,0-2.3,0-3.5c0-1.2,0-2.3,0-3.5c1.2-0.1,2.4-0.1,3.6-0.2c3.1-0.4,5.3-2.3,5.9-5.2c0.2-1,0.3-2.1,0.1-3.2
		C15.1,42.4,13.6,40.6,11,39.9z M8,48.7c-0.7,0.2-1.4,0.2-2.2,0.3c0-1.7,0-3.3,0-5c0.5,0,1,0,1.5,0c1.4,0,2.1,0.5,2.3,1.6
		C9.8,47,9.2,48.3,8,48.7z"/>
	<path d="M18,60.6c4.2,0,8.4,0,12.5,0c0-1.6,0-3.1,0-4.7c-2.3,0-4.5,0-6.8,0c0-1.3,0-2.6,0-4c2.1,0,4.2,0,6.3,0c0-1.6,0-3.1,0-4.6
		c-2.1,0-4.2,0-6.3,0c0-1.1,0-2.2,0-3.3c2.3,0,4.5,0,6.8,0c0-1.6,0-3.1,0-4.6c-4.2,0-8.4,0-12.5,0C18,46.5,18,53.5,18,60.6z"/>
	<path d="M54.2,60.6c4.2,0,8.3,0,12.5,0c0-1.6,0-3.1,0-4.7c-2.3,0-4.5,0-6.8,0c0-1.4,0-2.7,0-4c2.1,0,4.2,0,6.3,0c0-1.6,0-3.1,0-4.6
		c-2.1,0-4.2,0-6.3,0c0-1.1,0-2.2,0-3.3c2.3,0,4.5,0,6.8,0c0-1.6,0-3,0-4.6c-4.2,0-8.3,0-12.5,0C54.2,46.5,54.2,53.5,54.2,60.6z"/>
	<path d="M75.4,39.4c-1.9,0-3.8,0-5.7,0c0,7.1,0,14.1,0,21.2c4.7,0,9.3,0,13.8,0c0-1.6,0-3.1,0-4.6c-2.7,0-5.4,0-8.1,0
		C75.4,50.4,75.4,44.9,75.4,39.4z"/>
</g>
</svg>
