<?xml version="1.0" encoding="utf-8"?>
<!-- Generator: Adobe Illustrator 19.0.0, SVG Export Plug-In . SVG Version: 6.00 Build 0)  -->
<svg version="1.1" id="Layer_1" xmlns="http://www.w3.org/2000/svg" xmlns:xlink="http://www.w3.org/1999/xlink" x="0px" y="0px"
	 viewBox="0 0 100 100" style="enable-background:new 0 0 100 100;" xml:space="preserve">
<style type="text/css">
	.st0{fill:#333333;}
</style>
<path class="st0" d="M23.7,44.7c-2.3-1.6-3.9-3.2-3.9-5.3H7.1c0,3.6-1.7,5.3-3.7,5.3H0v36.8h65.8V44.7H23.4H23.7z M19.7,55.3H7.9V50
	h13.2v4.2L19.7,55.3z M42,75.8c-7.5,0-13.6-6-13.6-13.4S34.5,49.2,42,49.2c7.5,0,13.6,5.7,13.6,13.1C55.6,69.7,49.5,75.8,42,75.8z
	 M49.3,62.3c0,4-3.3,7.2-7.3,7.2c-4,0-7.3-3.2-7.3-7.2c0-4,3.3-7.2,7.3-7.2C46.1,55.1,49.3,58.3,49.3,62.3L49.3,62.3z M100,39.7
	L83.6,81.5l-12.6-5v-7.1l8.7,3.6l11.5-29.4L48.1,27l-4,12.5h-7.2l7.4-21.1L100,39.7L100,39.7z"/>
</svg>
