<?xml version="1.0" encoding="utf-8"?>
<!-- Generator: Adobe Illustrator 19.0.0, SVG Export Plug-In . SVG Version: 6.00 Build 0)  -->
<svg version="1.1" id="Layer_1" xmlns="http://www.w3.org/2000/svg" xmlns:xlink="http://www.w3.org/1999/xlink" x="0px" y="0px"
	 viewBox="0 0 100 100" style="enable-background:new 0 0 100 100;" xml:space="preserve">
<g>
	<path d="M50,41.7c-8.3,0-15.1,6.7-15.1,15.1c0,8.4,6.8,15,15.1,15S65,65.1,65,56.7S58.3,41.7,50,41.7z"/>
	<path d="M86.7,20H75l-2.6-7.1c-1.4-3.4-5.4-6.2-9-6.2H36.6c-3.7,0-7.7,2.8-9,6.2L25,20H13.3C5.9,20,0,26,0,33.3V80
		c0,7.4,6,13.3,13.3,13.3h73.4c7.4,0,13.3-6,13.3-13.3V33.4C100.1,26,94.1,20,86.7,20z M50,80.1c-12.9,0-23.3-10.5-23.3-23.3
		C26.6,44,37.1,33.5,50,33.5c12.9,0,23.3,10.5,23.3,23.3C73.3,69.6,62.9,80.1,50,80.1z"/>
</g>
</svg>
