<?xml version="1.0" encoding="utf-8"?>
<!-- Generator: Adobe Illustrator 19.0.0, SVG Export Plug-In . SVG Version: 6.00 Build 0)  -->
<svg version="1.1" id="Layer_1" xmlns="http://www.w3.org/2000/svg" xmlns:xlink="http://www.w3.org/1999/xlink" x="0px" y="0px"
	 viewBox="0 0 100 100" style="enable-background:new 0 0 100 100;" xml:space="preserve">
<style type="text/css">
	.st0{fill:#FF7416;}
</style>
<path class="st0" d="M98,79.3L56.1,11.6c-3.4-5.4-8.9-5.5-12.2,0l0,0L2,79.3c-4.5,7.3-1.2,13.2,7.3,13.2h81.3
	C99.2,92.5,102.5,86.6,98,79.3L98,79.3z M50,80.9c-2.1,0-3.9-1.7-3.9-3.9s1.7-3.9,3.9-3.9c2.1,0,3.9,1.7,3.9,3.9S52.1,80.9,50,80.9z
	 M53.9,61.5c0,2.1-1.7,3.9-3.9,3.9c-2.2,0-3.9-1.7-3.9-3.9V38.2c0-2.1,1.7-3.9,3.9-3.9l0,0c2.2,0,3.9,1.7,3.9,3.9V61.5z"/>
</svg>
