<?xml version="1.0" encoding="utf-8"?>
<!-- Generator: Adobe Illustrator 21.1.0, SVG Export Plug-In . SVG Version: 6.00 Build 0)  -->
<svg version="1.1" id="Layer_1" xmlns="http://www.w3.org/2000/svg" xmlns:xlink="http://www.w3.org/1999/xlink" x="0px" y="0px"
	 viewBox="0 0 160 160" style="enable-background:new 0 0 160 160;" xml:space="preserve">
<style type="text/css">
	.st0{fill:#F66069;}
	.st1{fill:none;}
	.st2{fill:#F49A7D;}
	.st3{fill:#F9D58B;}
</style>
<path class="st0" d="M56.1,19.6l9.3,108.7l41.9,11.6l42-11.6l9.3-108.7H56.1z M139.3,45.5l-3.1,34.9h0l0,0.5l0,0.1h0l-2.2,24.4
	l-0.2,2.2l-26.3,7.3v0l-0.1,0l-26.3-7.3l-1.8-20.2h5.9h7l0.9,10.2l14.3,3.9l0,0v0l14.3-3.9l1.5-16.7h-15.9v0H93.4h0L93.1,78
	l-0.6-6.5l-0.3-3.4h15.3v0h17l1.2-13.2h-18.1h0H76.5h0L76.2,52l-0.6-6.5l-0.3-3.4h32.1h0h32.2L139.3,45.5z"/>
<polygon class="st1" points="47.9,42.1 48.2,45.5 48.8,52 49,54.9 49.1,54.9 59.1,54.9 58,42.1 "/>
<polygon class="st1" points="57.9,87.4 51.9,87.4 53.7,107.5 64.1,110.4 62,87.4 "/>
<polygon class="st2" points="64.1,110.4 53.7,107.5 51.9,87.4 57.9,87.4 62,87.4 59.1,54.9 49.1,54.9 49,54.9 48.8,52 48.2,45.5 
	47.9,42.1 58,42.1 56.1,19.6 67.5,19.6 67.5,19.6 28.7,19.6 38,128.3 80,139.9 93.7,136.1 65.5,128.3 "/>
<g>
	<polygon class="st1" points="30.4,87.4 24.5,87.4 26.3,107.5 36.6,110.4 34.6,87.4 	"/>
	<polygon class="st1" points="20.5,42.1 20.8,45.5 21.3,52 21.6,54.9 21.6,54.9 31.7,54.9 30.5,42.1 	"/>
	<polygon class="st3" points="36.6,110.4 26.3,107.5 24.5,87.4 30.4,87.4 34.6,87.4 31.7,54.9 21.6,54.9 21.6,54.9 21.3,52 
		20.8,45.5 20.5,42.1 30.5,42.1 28.7,19.6 40.1,19.6 40.1,19.6 1.3,19.6 10.6,128.3 52.5,139.9 66.3,136.1 38,128.3 	"/>
</g>
</svg>
