<?xml version="1.0" encoding="utf-8"?>
<!-- Generator: Adobe Illustrator 21.1.0, SVG Export Plug-In . SVG Version: 6.00 Build 0)  -->
<svg version="1.1" id="Layer_1" xmlns="http://www.w3.org/2000/svg" xmlns:xlink="http://www.w3.org/1999/xlink" x="0px" y="0px"
	 viewBox="0 0 160 160" style="enable-background:new 0 0 160 160;" xml:space="preserve">
<style type="text/css">
	.st0{fill:#FAD490;}
	.st1{fill:#FC977F;}
	.st2{fill:#FE5B6A;}
</style>
<path class="st0" d="M157.1,56.4C157.1,56.4,157,56.4,157.1,56.4L157.1,56.4L86.2,23.9l-4.5-2.1l-0.1,0c-0.5-0.2-1.1-0.3-1.7-0.3
	h-0.4c-0.6,0-1.2,0.1-1.7,0.3l-0.1,0l-4.5,2.1L2.4,56.4l0,0c0,0,0,0,0,0c-1,0.4-1.7,1.4-1.7,2.5l0,0.2c0,1.1,0.7,2.1,1.7,2.5
	c0,0,0,0,0,0l0,0l70.8,32.5l4.5,2.1l0.1,0c0.5,0.2,1.1,0.3,1.7,0.3h0.4c0.6,0,1.2-0.1,1.7-0.3l0.1,0l4.5-2.1L157,61.7l0,0
	c0,0,0,0,0,0c1-0.4,1.7-1.4,1.7-2.5v-0.2C158.7,57.8,158,56.8,157.1,56.4z"/>
<path class="st1" d="M157.1,77.6C157.1,77.6,157,77.6,157.1,77.6L157.1,77.6l-17.4-8L86.2,94.1l-4.5,2.1l-0.1,0
	c-0.5,0.2-1.1,0.3-1.7,0.3h-0.4c-0.6,0-1.2-0.1-1.7-0.3l-0.1,0l-4.5-2.1L19.8,69.6l-17.3,8l0,0c0,0,0,0,0,0c-1,0.4-1.7,1.4-1.7,2.5
	l0,0.2c0,1.1,0.7,2.1,1.7,2.5c0,0,0,0,0,0l0,0l70.8,32.5l4.5,2.1l0.1,0c0.5,0.2,1.1,0.3,1.7,0.3h0.4c0.6,0,1.2-0.1,1.7-0.3l0.1,0
	l4.5-2.1L157,82.9l0,0c0,0,0,0,0,0c1-0.4,1.7-1.4,1.7-2.5v-0.2C158.7,79,158,78,157.1,77.6z"/>
<path class="st2" d="M157.1,98.8C157.1,98.8,157,98.8,157.1,98.8L157.1,98.8l-17.4-8l-53.5,24.5l-4.5,2.1l-0.1,0
	c-0.5,0.2-1.1,0.3-1.7,0.3h-0.4c-0.6,0-1.2-0.1-1.7-0.3l-0.1,0l-4.5-2.1L19.8,90.8l-17.3,8l0,0c0,0,0,0,0,0c-1,0.4-1.7,1.4-1.7,2.5
	l0,0.2c0,1.1,0.7,2.1,1.7,2.5c0,0,0,0,0,0l0,0l70.8,32.5l4.5,2.1l0.1,0c0.5,0.2,1.1,0.3,1.7,0.3h0.4c0.6,0,1.2-0.1,1.7-0.3l0.1,0
	l4.5-2.1l70.8-32.5l0,0c0,0,0,0,0,0c1-0.4,1.7-1.4,1.7-2.5v-0.2C158.7,100.2,158,99.2,157.1,98.8z"/>
</svg>
