<?xml version="1.0" encoding="utf-8"?>
<!-- Generator: Adobe Illustrator 21.1.0, SVG Export Plug-In . SVG Version: 6.00 Build 0)  -->
<svg version="1.1" id="Layer_1" xmlns="http://www.w3.org/2000/svg" xmlns:xlink="http://www.w3.org/1999/xlink" x="0px" y="0px"
	 viewBox="0 0 160 160" style="enable-background:new 0 0 160 160;" xml:space="preserve">
<style type="text/css">
	.st0{fill:url(#SVGID_1_);}
	.st1{fill:url(#SVGID_2_);}
	.st2{fill:url(#SVGID_3_);}
	.st3{fill:url(#SVGID_4_);}
	.st4{fill:url(#SVGID_5_);}
	.st5{fill:url(#SVGID_6_);}
</style>
<g>
	<g>
		
			<linearGradient id="SVGID_1_" gradientUnits="userSpaceOnUse" x1="14.9966" y1="158.7764" x2="14.9966" y2="3.8792" gradientTransform="matrix(1 0 0 -1 0 161)">
			<stop  offset="0" style="stop-color:#F66069"/>
			<stop  offset="1" style="stop-color:#F9D58B"/>
		</linearGradient>
		<path class="st0" d="M4.9,7.8C2.2,7.8,0,10,0,12.6v102.8c0,2.6,2.2,4.9,4.9,4.9H30V7.8H4.9z"/>
		
			<linearGradient id="SVGID_2_" gradientUnits="userSpaceOnUse" x1="145.0034" y1="158.7764" x2="145.0034" y2="3.8792" gradientTransform="matrix(1 0 0 -1 0 161)">
			<stop  offset="0" style="stop-color:#F66069"/>
			<stop  offset="1" style="stop-color:#F9D58B"/>
		</linearGradient>
		<path class="st1" d="M155.1,120.1c2.6,0,4.9-2.2,4.9-4.9V12.6c0-2.6-2.2-4.9-4.9-4.9H130v112.4H155.1z"/>
	</g>
	<g>
		
			<linearGradient id="SVGID_3_" gradientUnits="userSpaceOnUse" x1="53.0393" y1="158.7764" x2="53.0393" y2="3.8792" gradientTransform="matrix(1 0 0 -1 0 161)">
			<stop  offset="0" style="stop-color:#F66069"/>
			<stop  offset="1" style="stop-color:#F9D58B"/>
		</linearGradient>
		<circle class="st2" cx="53" cy="152.1" r="7.8"/>
		
			<linearGradient id="SVGID_4_" gradientUnits="userSpaceOnUse" x1="79.9449" y1="158.7764" x2="79.9449" y2="3.8792" gradientTransform="matrix(1 0 0 -1 0 161)">
			<stop  offset="0" style="stop-color:#F66069"/>
			<stop  offset="1" style="stop-color:#F9D58B"/>
		</linearGradient>
		<circle class="st3" cx="79.9" cy="152.1" r="7.8"/>
		
			<linearGradient id="SVGID_5_" gradientUnits="userSpaceOnUse" x1="106.9607" y1="158.7764" x2="106.9607" y2="3.8792" gradientTransform="matrix(1 0 0 -1 0 161)">
			<stop  offset="0" style="stop-color:#F66069"/>
			<stop  offset="1" style="stop-color:#F9D58B"/>
		</linearGradient>
		<circle class="st4" cx="107" cy="152.1" r="7.8"/>
	</g>
	
		<linearGradient id="SVGID_6_" gradientUnits="userSpaceOnUse" x1="80.0551" y1="158.7764" x2="80.0551" y2="3.8792" gradientTransform="matrix(1 0 0 -1 0 161)">
		<stop  offset="0" style="stop-color:#F66069"/>
		<stop  offset="1" style="stop-color:#F9D58B"/>
	</linearGradient>
	<path class="st5" d="M118.9,0.1H41.1c-2.6,0-4.9,2.2-4.9,4.9v118.2c0,2.6,2.2,4.9,4.9,4.9H119c2.6,0,4.9-2.2,4.9-4.9V4.9
		C123.7,2.3,121.5,0.1,118.9,0.1z M79.4,17.9c12.1,0,22.1,9.9,22.1,22.1S91.5,62,79.4,62S57.3,52.1,57.3,40S67.3,17.9,79.4,17.9z
		 M51.8,74.7h55.2c1.5,0,2.8,1.2,2.8,2.8s-1.2,2.8-2.8,2.8H51.8c-1.5,0-2.8-1.2-2.8-2.8S50.4,74.7,51.8,74.7z M52.4,89.6h55.2
		c1.5,0,2.8,1.2,2.8,2.8c0,1.5-1.2,2.8-2.8,2.8H52.4c-1.5,0-2.8-1.2-2.8-2.8C49.6,90.8,50.8,89.6,52.4,89.6z M108.1,110H52.8
		c-1.5,0-2.8-1.2-2.8-2.8c0-1.5,1.2-2.8,2.8-2.8h55.2c1.5,0,2.8,1.2,2.8,2.8C110.8,108.8,109.6,110,108.1,110z"/>
</g>
</svg>
